<svg xmlns="http://www.w3.org/2000/svg" width="512" height="512" id="the-lucky-cat"><path fill="#F8CC00" d="M67.386 246.31s-43.327 30.208-43.082 96.317c.254 68.553 47.312 147.362 227.524 147.362h-10.39c180.211 0 227.27-78.81 227.523-147.362.13-34.985-11.942-59.916-23.339-75.637l10.17 16.819s25.23-20.201 28.239-86.01c-4.513-44.75-127.854-40.237-235.78-40.237S91.279 186.398 69.015 243.301"></path><path fill="#F8CC00" d="M251.828 491.989h-10.39c-.219 0-.429-.035-.626-.1-76.593-1.406-134.252-17.648-171.502-48.33-38.66-31.845-46.901-72.46-47.006-100.925-.128-34.664 11.783-59.421 21.797-74.086 10.883-15.935 21.686-23.562 22.141-23.88.321-.224.684-.34 1.047-.357a1.996 1.996 0 0 1-.137-1.739c23.863-60.988 78.024-87.01 181.1-87.01 9.025 0 18.159-.031 27.322-.063 49.854-.172 101.409-.351 140.586 4.659 45.676 5.84 67.875 17.737 69.862 37.441.01.097.013.194.008.292-1.57 34.347-9.274 56.203-15.459 68.49-5.163 10.256-10.126 15.758-12.337 17.909 7.072 14.71 12.818 34.135 12.728 58.344-.105 28.465-8.346 69.08-47.006 100.925-37.25 30.682-94.909 46.924-171.501 48.33-.198.065-.408.1-.627.1zM69.111 245.299a2 2 0 0 1-.58 2.65c-.106.074-10.757 7.62-21.23 23.009-9.647 14.175-21.121 38.113-20.997 71.661.102 27.608 8.087 66.995 45.549 97.853 37.457 30.853 96.247 46.823 174.78 47.495 78.533-.672 137.322-16.643 174.779-47.495 37.462-30.857 45.447-70.244 45.549-97.853.09-24.304-5.867-43.617-13.036-58.032l-10.014-16.562a2 2 0 0 1 3.331-2.209c2.978 4.107 6.11 9 9.087 14.681 5.701-6.109 23.219-29.087 25.698-82.64-1.85-17.224-23.564-28.258-66.375-33.731-38.916-4.977-90.336-4.798-140.065-4.627-9.167.032-18.305.063-27.335.063-52.734 0-92.263 6.974-120.844 21.318-27.016 13.559-44.979 33.625-56.531 63.148a1.998 1.998 0 0 1-1.766 1.271z"></path><path fill="#F8CC00" d="M246.98 266.992c161.889 0 186.144-50.767 182.671-91.336-3.412-39.859-17.962-55.887-24.731-75.629-6.769-19.743 4.366-71.948-13.887-80.662-18.253-8.715-74.672 24.818-82.568 28.768-7.897 3.948-27.076-3.949-61.484-3.949h1.271c-34.408 0-53.587 7.897-61.484 3.949-7.896-3.949-64.315-37.482-82.568-28.768-18.253 8.714-7.118 60.919-13.887 80.662-6.77 19.742-21.319 35.77-24.731 75.629-3.473 40.569 20.782 91.336 182.671 91.336h-1.273z"></path><path fill="#F8CC00" d="M248.272 268.992h-1.291l-.068-.001c-84.956-.146-141.133-14.505-166.978-42.679-12.561-13.693-18.061-30.794-16.346-50.827 2.432-28.408 10.354-44.676 17.343-59.029 2.839-5.831 5.521-11.339 7.489-17.077 2.454-7.158 2.451-19.034 2.447-31.608-.006-21.755-.013-44.251 12.469-50.21 2.272-1.085 5.126-1.635 8.482-1.635 20.201 0 55.733 19.453 70.906 27.76 2.23 1.222 3.992 2.186 4.937 2.658 1.204.602 2.914.895 5.229.895 3.641 0 8.418-.702 14.467-1.59 9.667-1.42 22.854-3.356 39.489-3.461.044-.002.088-.004.133-.004h1.271c.045 0 .09.002.134.005 16.641.104 29.823 2.04 39.487 3.46 6.049.888 10.827 1.59 14.469 1.59 2.315 0 4.025-.293 5.229-.895.945-.473 2.707-1.437 4.937-2.658 15.173-8.307 50.707-27.76 70.906-27.76 3.356 0 6.209.55 8.482 1.635 12.482 5.959 12.476 28.455 12.469 50.21-.003 12.574-.006 24.45 2.448 31.608 1.968 5.738 4.649 11.246 7.489 17.077 6.989 14.354 14.912 30.621 17.343 59.029 1.715 20.033-3.785 37.134-16.346 50.827-25.843 28.172-82.01 42.53-166.957 42.679l-.069.001zM111.819 19.926c-2.755 0-5.029.419-6.758 1.244-10.205 4.872-10.199 27.041-10.193 46.6.003 12.917.007 25.117-2.664 32.906-2.048 5.972-4.782 11.587-7.677 17.531-6.837 14.04-14.585 29.953-16.954 57.62-1.615 18.871 3.535 34.947 15.308 47.781 25.127 27.393 80.553 41.315 164.736 41.384 84.18-.068 139.605-13.991 164.733-41.384 11.773-12.834 16.923-28.91 15.308-47.781-2.369-27.667-10.117-43.58-16.954-57.62-2.895-5.944-5.629-11.56-7.677-17.531-2.67-7.789-2.667-19.989-2.664-32.906.006-19.559.012-41.728-10.193-46.6-1.729-.825-4.003-1.244-6.758-1.244-19.176 0-55.362 19.811-68.985 27.269-2.355 1.29-4.057 2.222-5.069 2.728-1.796.897-4.026 1.316-7.018 1.316-3.934 0-8.839-.721-15.05-1.633-9.694-1.424-22.971-3.374-39.681-3.421-16.699.047-29.977 1.997-39.672 3.421-6.21.912-11.115 1.633-15.048 1.633-2.991 0-5.221-.418-7.018-1.316-1.011-.506-2.713-1.438-5.069-2.728-13.62-7.459-49.805-27.269-68.983-27.269z"></path><path fill="red" d="M248.252 266.992c153.428 0 174.535-52.323 174.535-52.323s10.206 12.838 4.703 28.632c-5.504 15.794-66.988 53.705-179.238 53.705S74.518 259.095 69.015 243.301s4.703-28.632 4.703-28.632 21.106 52.323 174.534 52.323"></path><path fill="red" d="M248.252 299.006c-62.007 0-105.116-11.453-130.36-21.061-30.999-11.798-47.833-25.57-50.766-33.986-5.799-16.643 4.582-29.976 5.026-30.534a2.002 2.002 0 0 1 3.421.496c.049.118 5.538 12.841 29.367 25.438 40.082 21.187 100.057 25.634 143.312 25.634s103.231-4.447 143.312-25.634c23.83-12.597 29.319-25.319 29.372-25.446a2.01 2.01 0 0 1 1.571-1.22 2.012 2.012 0 0 1 1.845.732c.445.559 10.825 13.892 5.026 30.534-2.933 8.416-19.768 22.188-50.767 33.986-25.243 9.608-68.352 21.061-130.359 21.061zM73.584 218.555c-2.46 4.348-6.342 13.582-2.681 24.088 2.542 7.296 18.776 20.285 48.411 31.564 24.931 9.488 67.538 20.799 128.938 20.799 61.399 0 104.006-11.311 128.938-20.799 29.635-11.279 45.87-24.269 48.412-31.564 3.66-10.504-.22-19.738-2.682-24.088-3.086 4.814-10.986 14.446-28.922 24.039-40.79 21.818-101.772 26.398-145.746 26.398s-104.956-4.58-145.746-26.398c-17.935-9.593-25.835-19.226-28.922-24.039zm134.176-81.487c-5.574 3.948-12.343-9.025-41.528-11.688-16.771-1.53-22.896 6.423-29.665 3.227-4.742-2.24-5.453-18.99 29.896-19.931 24.433-.65 50.236 22.061 41.297 28.392zm-87.079-89.984c-3.624 2.747-9.478 35.528-5.218 41.168 6.602 8.74 53.316-19.868 49-28.014-4.317-8.144-35.863-19.155-43.782-13.154z"></path><path fill="red" d="M119.878 91.895h-.002c-2.767-.001-4.788-.82-6.009-2.438-4.771-6.315.744-40.282 5.605-43.967 1.86-1.41 4.677-2.124 8.373-2.124 14.456 0 34.896 9.353 38.385 15.936.897 1.693.63 3.752-.795 6.119-5.77 9.586-33.058 26.474-45.557 26.474zm7.967-44.529c-3.492 0-5.167.713-5.957 1.312-2.677 2.587-8.467 33.554-4.83 38.369.529.7 1.824.847 2.818.848 11.004.001 37.044-16.086 42.131-24.536.774-1.287.797-1.979.688-2.184-2.823-5.327-22.351-13.809-34.85-13.809zm-.118 114.196c-.481 0-.971-.087-1.447-.271-.267-.104-26.928-10.309-43.95-4.812a4 4 0 1 1-2.461-7.611c19.742-6.382 48.113 4.5 49.312 4.967a4 4 0 0 1-1.454 7.727zm-46.624 19.744a4 4 0 0 1-1.861-7.544c16.827-8.822 45.802-3.07 47.027-2.821a4 4 0 0 1 3.123 4.715 3.997 3.997 0 0 1-4.715 3.125c-.273-.056-27.418-5.431-41.72 2.067a3.993 3.993 0 0 1-1.854.458zm8.461 26.134a4 4 0 0 1-2.213-7.335c15.762-10.441 39.162-11.884 40.15-11.939 2.228-.129 4.096 1.561 4.221 3.766s-1.56 4.094-3.764 4.221c-.221.013-22.251 1.39-36.189 10.623a3.978 3.978 0 0 1-2.205.664zm157.416-26.187c8.461 0 16.641.564 34.127 7.65 17.485 7.086 26.229-3.138 31.588-8.214 5.357-5.077 12.691-7.615 8.178 3.384-11.562 22.281-30.741 18.333-43.15 14.103-12.41-4.231-18.615-6.205-30.742-6.205h1.271c-12.127 0-18.332 1.974-30.742 6.205-12.409 4.23-31.588 8.179-43.151-14.103-4.513-10.999 2.821-8.461 8.179-3.384 5.359 5.076 14.103 15.3 31.588 8.214 17.486-7.086 25.666-7.65 34.127-7.65h-1.273zm40.493-44.185c5.574 3.948 12.343-9.025 41.528-11.688 16.771-1.53 22.896 6.423 29.665 3.227 4.742-2.24 5.453-18.99-29.896-19.931-24.433-.65-50.237 22.061-41.297 28.392zm87.079-89.984c3.624 2.747 9.478 35.528 5.218 41.168-6.602 8.74-53.316-19.868-49-28.014 4.316-8.144 35.863-19.155 43.782-13.154z"></path><path fill="red" d="M375.356 91.895c-12.5 0-39.791-16.89-45.56-26.476-1.424-2.366-1.691-4.425-.794-6.117 3.489-6.583 23.929-15.936 38.385-15.936 3.695 0 6.513.714 8.373 2.124 4.861 3.685 10.376 37.651 5.605 43.967-1.221 1.617-3.242 2.438-6.009 2.438zm-7.969-44.529c-12.499 0-32.027 8.481-34.851 13.809-.109.205-.086.896.688 2.182 5.085 8.45 31.125 24.538 42.132 24.538.993 0 2.288-.147 2.817-.848 3.637-4.815-2.153-35.782-4.862-38.396-.757-.572-2.432-1.285-5.924-1.285zm.118 114.196a4 4 0 0 1-1.454-7.728c1.199-.466 29.57-11.351 49.312-4.967a4 4 0 1 1-2.461 7.611c-17.019-5.497-43.683 4.708-43.95 4.812a3.959 3.959 0 0 1-1.447.272zm46.624 19.744a3.98 3.98 0 0 1-1.854-.458c-14.302-7.499-41.449-2.122-41.72-2.067-2.165.443-4.276-.961-4.715-3.125a4 4 0 0 1 3.123-4.715c1.226-.248 30.2-6 47.027 2.821a4.001 4.001 0 0 1-1.861 7.544zm-8.461 26.134a3.984 3.984 0 0 1-2.205-.665c-13.979-9.261-35.967-10.61-36.188-10.623a3.999 3.999 0 0 1-3.766-4.221 3.991 3.991 0 0 1 4.221-3.766c.988.056 24.388 1.498 40.15 11.939a4 4 0 0 1 1.125 5.544 3.987 3.987 0 0 1-3.337 1.792z"></path><path fill="#F8CC00" d="M398.963 432.284c17.336-3.479 38.07 6.019 41.136 28.843 3.692 27.527-17.923 25.169-17.923 25.169s3.348-5.683-1.254-21.176c1.055 7.618 9.066 23.999-11.129 28.161-17.7 3.648-16.858-23.703-16.858-23.703s7.987 26.6-10.078 27.008c-20.619.461-16.477-17.296-17.15-24.957-1.017 16.132 3.515 20.917 3.515 20.917s-20.538 7.142-23.101-20.516c-2.123-22.926 12.422-34.111 32.095-37.237l20.747-2.509z"></path><path fill="red" d="M382.078 500.595c-6.114 0-10.376-1.547-13.343-3.781a24.135 24.135 0 0 1-5.139.561c-17.279 0-20.763-17.466-21.458-24.975-2.083-22.499 10.837-37.646 35.45-41.557.049-.008.099-.015.148-.021l20.598-2.491a40.215 40.215 0 0 1 7.721-.745c16.171 0 34.963 10.329 38.009 33.009 1.352 10.074-.285 17.837-4.864 23.07-5.169 5.909-12.495 6.653-15.598 6.681-2.506 2.975-6.562 5.526-13 6.854-1.343.276-2.66.417-3.915.417-2.765 0-6.952-.731-10.579-4.393-2.61 4.635-7.117 7.225-13.16 7.361-.295.007-.585.01-.87.01zm-11.465-14.654c.99 3.3 3.146 6.653 11.465 6.653.226 0 .456-.003.689-.008 2.231-.051 7.394-.166 7.889-9.438-1.911-6.681-1.729-13.402-1.719-13.694a4 4 0 0 1 3.478-3.843 3.994 3.994 0 0 1 4.351 2.815c.084.28 1.994 6.724 1.926 13.634 2.519 7.524 6.591 7.555 7.976 7.555h.017c.713 0 1.487-.085 2.3-.253 8.713-1.795 10.138-5.677 10.357-9.252.025-.951-.005-1.98-.091-3.058-.227-2.205-.805-4.606-1.315-6.725-.401-1.666-.78-3.238-.977-4.66a4 4 0 0 1 7.797-1.687c1.341 4.517 2.173 8.701 2.47 12.437.143 1.39.182 2.74.11 4.043-.016.494-.042.963-.077 1.407 1.965-.498 4.192-1.496 5.919-3.47 2.992-3.421 3.987-9.053 2.956-16.739-2.419-18.012-16.851-26.073-30.081-26.073-2.131 0-4.252.208-6.304.62a3.563 3.563 0 0 1-.307.049l-20.673 2.5c-14.274 2.285-30.802 9.854-28.667 32.906 1.074 11.594 5.506 17.55 13.174 17.71-.126-.402-.25-.827-.369-1.276-.383-1.307-.66-2.698-.847-4.25-.519-3.587-.64-7.812-.347-12.468a4 4 0 0 1 3.942-3.748 3.988 3.988 0 0 1 4.034 3.649c.126 1.429.108 3.045.09 4.756-.023 2.151-.05 4.589.223 6.854a29.3 29.3 0 0 0 .611 3.054z"></path><path fill="#F8CC00" d="M102.901 432.284c-17.336-3.479-38.07 6.019-41.136 28.843-3.692 27.527 17.923 25.169 17.923 25.169s-3.348-5.683 1.254-21.176c-1.055 7.618-9.066 23.999 11.129 28.161 17.7 3.648 16.858-23.703 16.858-23.703s-7.987 26.6 10.078 27.008c20.619.461 16.477-17.296 17.15-24.957 1.017 16.132-3.515 20.917-3.515 20.917s20.538 7.142 23.101-20.516c2.123-22.926-12.422-34.111-32.095-37.237l-20.747-2.509z"></path><path fill="#AA0909" d="M119.786 498.595c-.27 0-.545-.003-.823-.01-6.423-.145-10.78-3.338-12.692-9.143-3.281 4.959-7.625 6.174-11.092 6.174-1.119 0-2.3-.127-3.511-.376-5.825-1.2-9.991-3.514-12.467-6.909-.21.009-.463.016-.753.016-2.715 0-9.542-.585-14.277-5.998-4.182-4.78-5.658-12.01-4.387-21.487 2.886-21.488 20.699-31.275 36.027-31.275 2.5 0 4.992.242 7.407.722l20.672 2.5c23.855 3.789 35.849 17.78 33.846 39.407-1.867 20.149-12.997 23.159-19.466 23.159h-.001c-2.531 0-4.597-.461-5.61-.737-3.03 2.634-7.331 3.957-12.873 3.957zm-10.592-15.684c.47 11.463 7.525 11.623 9.858 11.676.247.005.493.008.733.008 9.851 0 12.365-4.647 13.399-8.143.26-.993.491-2.147.667-3.373.283-2.347.255-4.854.231-7.067-.018-1.66-.035-3.228.082-4.558.091-1.043.932-1.814 2.017-1.825a2 2 0 0 1 1.971 1.874c.285 4.518.169 8.605-.342 12.148a23.807 23.807 0 0 1-.791 3.936 22.516 22.516 0 0 1-1.259 3.607c.727.104 1.579.18 2.507.18 8.946.001 14.3-6.752 15.484-19.528 1.259-13.597-2.996-30.721-30.417-35.077l-20.674-2.499a2.564 2.564 0 0 1-.153-.024 34.085 34.085 0 0 0-6.697-.659c-14.1 0-29.483 8.598-32.062 27.808-1.111 8.283.044 14.447 3.433 18.321 2.986 3.413 7.161 4.34 9.773 4.565-.21-1.026-.382-2.329-.429-3.936-.068-1.154-.033-2.42.11-3.812.283-3.552 1.088-7.599 2.39-11.981a2 2 0 0 1 3.898.843c-.183 1.324-.551 2.851-.94 4.466-.525 2.181-1.12 4.651-1.369 7.079a30.708 30.708 0 0 0-.091 3.289c.216 3.717 1.694 8.979 11.951 11.094.946.195 1.855.294 2.704.294 4.668 0 8.031-3.111 9.999-9.249-.131-6.726 1.755-13.092 1.837-13.364a2.009 2.009 0 0 1 2.176-1.408 2.001 2.001 0 0 1 1.739 1.922c.008.282.188 6.914-1.735 13.393z"></path><path fill="#FFF" d="M205.333 296.089c-.295 0-.588-.126-.792-.369-.283-.337-6.917-8.365-6.001-17.638.484-4.902 2.996-9.205 7.463-12.788a1.033 1.033 0 1 1 1.293 1.611c-4.019 3.223-6.272 7.052-6.7 11.38-.831 8.416 5.464 16.03 5.528 16.106a1.034 1.034 0 0 1-.791 1.698zm-60.332-10.521c-.362 0-.713-.19-.902-.528-10.427-18.628 3.829-27.904 3.975-27.996a1.033 1.033 0 0 1 1.103 1.747c-.535.341-12.718 8.369-3.274 25.239a1.032 1.032 0 0 1-.902 1.538zm-50.656-19.532c-.453 0-.868-.3-.995-.757-5.331-19.215 9.397-25.434 9.547-25.494a1.033 1.033 0 0 1 .779 1.913c-.54.222-13.161 5.63-8.334 23.028a1.032 1.032 0 0 1-.997 1.31zm78.321 25.367c-.259 0-.519-.098-.72-.292-4.443-4.316-6.543-8.988-6.242-13.885.544-8.846 8.709-15.124 9.057-15.387a1.032 1.032 0 0 1 1.248 1.646c-.078.059-7.765 5.986-8.243 13.879-.259 4.264 1.632 8.39 5.62 12.264a1.033 1.033 0 0 1-.72 1.775zm-56.593-15.755c-.411 0-.799-.246-.96-.651-2.221-5.575-2.37-10.633-.441-15.031 2.987-6.814 9.847-9.505 10.138-9.616a1.033 1.033 0 0 1 .74 1.929c-.063.024-6.365 2.517-8.993 8.536-1.689 3.869-1.529 8.384.477 13.419a1.034 1.034 0 0 1-.961 1.414zm-40.24-23.3c-.421 0-.817-.26-.97-.679-.147-.403-3.56-9.955.166-17.253 1.749-3.425 4.771-5.768 8.983-6.964a1.033 1.033 0 0 1 .565 1.988c-3.634 1.031-6.226 3.02-7.704 5.908-3.319 6.488-.102 15.521-.069 15.612a1.034 1.034 0 0 1-.971 1.388zm215.339 43.741a1.033 1.033 0 0 1-.792-1.696c.063-.076 6.364-7.721 5.528-16.12-.431-4.323-2.685-8.147-6.699-11.367a1.033 1.033 0 1 1 1.293-1.611c4.468 3.583 6.979 7.886 7.463 12.788.916 9.271-5.719 17.301-6.001 17.638a1.037 1.037 0 0 1-.792.368zm60.332-10.521a1.032 1.032 0 0 1-.9-1.538c9.479-16.937-2.749-24.907-3.273-25.238a1.033 1.033 0 0 1 1.102-1.748c.146.092 14.4 9.368 3.975 27.996a1.037 1.037 0 0 1-.904.528zm50.655-19.532a1.032 1.032 0 0 1-.996-1.309c2.043-7.363 1.248-13.48-2.363-18.181-2.676-3.483-5.936-4.833-5.969-4.847a1.032 1.032 0 1 1 .777-1.914c.149.061 14.878 6.279 9.547 25.494a1.037 1.037 0 0 1-.996.757zm-78.321 25.367a1.034 1.034 0 0 1-.72-1.774c3.988-3.874 5.879-8 5.62-12.264-.479-7.893-8.166-13.82-8.243-13.879-.454-.345-.543-.993-.199-1.447s.992-.545 1.446-.199c.347.263 8.513 6.541 9.057 15.387.301 4.896-1.799 9.568-6.242 13.885-.2.194-.46.291-.719.291zm56.594-15.755a1.032 1.032 0 0 1-.96-1.415c2.005-5.035 2.166-9.55.477-13.419-2.628-6.02-8.93-8.512-8.994-8.536a1.033 1.033 0 0 1 .74-1.929c.291.111 7.15 2.802 10.138 9.616 1.928 4.398 1.78 9.456-.44 15.031-.162.406-.55.652-.961.652zm40.238-23.3a1.033 1.033 0 0 1-.971-1.386c.033-.091 3.25-9.124-.068-15.612-1.478-2.889-4.069-4.877-7.704-5.908a1.033 1.033 0 0 1 .565-1.988c4.212 1.196 7.235 3.539 8.983 6.964 3.726 7.298.313 16.85.166 17.253a1.036 1.036 0 0 1-.971.677z"></path><g fill="#FFF"><circle cx="247.616" cy="311.758" r="37.566"></circle><path d="M247.616 351.324c-21.817 0-39.566-17.749-39.566-39.566 0-21.816 17.75-39.565 39.566-39.565s39.566 17.749 39.566 39.565c.001 21.817-17.749 39.566-39.566 39.566zm0-75.132c-19.611 0-35.566 15.954-35.566 35.565s15.955 35.566 35.566 35.566 35.566-15.955 35.566-35.566-15.954-35.565-35.566-35.565z"></path></g><path fill="#F8CC00" d="M247.616 347.5v-23.46"></path><path fill="red" d="M247.616 351.5a4 4 0 0 1-4-4v-23.46a4 4 0 0 1 8 0v23.46a4 4 0 0 1-4 4z"></path><circle cx="248.385" cy="314.047" r="9.994" fill="#F8CC00"></circle><path fill="red" d="M248.385 328.04c-7.716 0-13.994-6.277-13.994-13.993 0-7.717 6.278-13.995 13.994-13.995s13.994 6.278 13.994 13.995c0 7.716-6.278 13.993-13.994 13.993zm0-19.988a6.001 6.001 0 0 0-5.994 5.995 6 6 0 0 0 5.994 5.993 6 6 0 0 0 5.994-5.993 6.001 6.001 0 0 0-5.994-5.995z"></path><path fill="#F8CC00" d="M463.407 142.167c17.658-.913 36.786 11.51 36.488 34.535-.362 27.772-21.403 22.285-21.403 22.285s4.142-5.133 1.848-21.133c-.066 7.692 5.471 25.067-15.116 26.237-18.044 1.026-13.221-25.908-13.221-25.908s4.022 27.48-13.909 25.247c-20.467-2.551-13.777-19.514-13.328-27.191-3.359 15.812.428 21.207.428 21.207s-21.361 4.068-19.86-23.668c1.243-22.989 17.265-31.932 37.183-32.156l20.89.545z"></path><path fill="red" d="M464.235 208.12c-5.403.001-9.662-2.087-12.542-6.029-3.569 4.576-8.387 5.469-11.598 5.469-.805 0-1.645-.054-2.496-.159-4.579-.571-9.829-2.099-13.514-5.804a23.92 23.92 0 0 1-1.673.059c-3.446 0-9.965-.779-14.912-6.001-4.618-4.875-6.691-12.308-6.162-22.092 1.22-22.56 16.212-35.659 41.132-35.94.048 0 .099-.001.149.001l20.74.541a40.254 40.254 0 0 1 1.872-.044c10.668 0 20.941 4.209 28.186 11.548 6.992 7.083 10.615 16.449 10.478 27.086-.314 24.074-14.991 26.674-21.287 26.674-1.297 0-2.427-.105-3.295-.226-2.913 2.577-7.297 4.51-13.863 4.883a21.9 21.9 0 0 1-1.215.034zm-8.358-16.745c1.37 7.735 5.171 8.745 8.357 8.745.248 0 .502-.007.762-.021 8.872-.505 10.851-4.128 11.592-7.623.167-.948.288-1.982.361-3.075.095-2.208-.126-4.663-.322-6.828-.154-1.706-.299-3.317-.287-4.752a4 4 0 0 1 3.733-3.957 4.009 4.009 0 0 1 4.227 3.424c.667 4.656.88 8.91.632 12.644a25.644 25.644 0 0 1-.487 4.063 28.02 28.02 0 0 1-.278 1.361c7.633-.733 11.577-7.017 11.73-18.705.109-8.449-2.717-15.836-8.172-21.362-5.752-5.826-13.95-9.168-22.493-9.168-.54 0-1.081.014-1.618.042a4.033 4.033 0 0 1-.311.004l-20.815-.543c-14.456.18-31.91 5.256-33.16 28.371-.406 7.505.933 12.94 3.981 16.158 1.913 2.019 4.302 2.926 6.468 3.29a29.616 29.616 0 0 1-.185-1.364 26.184 26.184 0 0 1-.214-4.225c.004-3.641.501-7.859 1.476-12.445a4 4 0 0 1 7.906 1.064c-.084 1.433-.337 3.029-.605 4.721-.339 2.139-.723 4.563-.779 6.856 0 1.019.051 2.068.155 3.035.507 3.534 2.24 7.277 11.058 8.376.524.065 1.032.099 1.507.099 1.658 0 5.998 0 7.673-8.281-.916-6.888.246-13.513.297-13.8a4 4 0 0 1 7.896.126c.041.289.99 6.944-.085 13.77z"></path><g fill="red"><path d="M162.274 411.87c10.269 33.591-8.636 69.149-42.222 79.421-33.592 10.271-69.15-8.635-79.42-42.225l-22.972-75.13c-10.271-33.589 8.632-69.146 42.221-79.417 33.591-10.271 69.149 8.631 79.42 42.222l22.973 75.129z"></path><path d="M101.434 496.087c-29.02 0-54.222-18.661-62.714-46.436L15.747 374.52c-10.577-34.591 8.959-71.337 43.548-81.914a65.63 65.63 0 0 1 19.206-2.885c29.018 0 54.22 18.66 62.712 46.434l22.974 75.13c10.575 34.592-8.961 71.341-43.549 81.918a65.621 65.621 0 0 1-19.204 2.884zM78.501 293.722c-6.088 0-12.156.912-18.036 2.709-32.48 9.933-50.825 44.438-40.893 76.92l22.973 75.131c7.974 26.082 31.64 43.605 58.889 43.605 6.087 0 12.155-.911 18.034-2.708 32.479-9.934 50.824-44.441 40.894-76.924l-22.974-75.13c-7.974-26.08-31.639-43.603-58.887-43.603z"></path></g><g fill="#F8CC00"><path d="M149.935 413.036c8.487 27.759-7.137 57.146-34.891 65.634-27.761 8.486-57.146-7.137-65.633-34.895L28.12 371.549c-8.488-27.759 7.133-57.143 34.89-65.631 27.76-8.487 57.145 7.133 65.633 34.891l21.292 72.227z"></path><path d="M99.659 482.98c-24.136 0-45.097-15.521-52.16-38.62l-21.297-72.246c-8.791-28.749 7.456-59.312 36.223-68.108a54.58 54.58 0 0 1 15.973-2.398c24.134 0 45.094 15.519 52.158 38.616l21.298 72.247c8.791 28.75-7.457 59.313-36.224 68.111a54.571 54.571 0 0 1-15.971 2.398zM78.397 305.607c-4.997 0-9.977.748-14.803 2.224-26.658 8.151-41.714 36.474-33.562 63.133L51.33 443.21c6.54 21.388 25.964 35.771 48.329 35.771 4.996 0 9.976-.748 14.801-2.224 26.658-8.152 41.714-36.476 33.562-63.136l-21.298-72.247c-6.539-21.386-25.963-35.767-48.327-35.767z"></path></g><path fill="#F8CC00" d="M51.556 270.054c15.099-9.202 37.834-7.37 48.522 13.024 12.89 24.604-8.229 29.782-8.229 29.782s1.201-6.482-8.425-19.469c3.6 6.8 16.733 19.448-.82 30.271-15.384 9.483-23.951-16.503-23.951-16.503s16.608 22.259-.228 28.823c-19.217 7.49-21.398-10.612-24.656-17.581 4.566 15.508 10.461 18.453 10.461 18.453s-16.854 13.738-28.726-11.374c-9.841-20.814 0-36.3 17.414-45.974l18.638-9.452z"></path><path fill="red" d="M33.542 344.605c-6.123 0-14.849-3.021-21.654-17.414-9.656-20.423-2.698-39.077 19.088-51.181.044-.024.088-.048.133-.07l18.501-9.386c6.2-3.742 13.6-5.803 20.856-5.803 14.252 0 26.337 7.461 33.154 20.47 4.951 9.45 5.94 17.612 2.94 24.261-2.963 6.567-8.98 9.56-11.983 10.689-1.336 3.654-4.273 7.442-9.875 10.896-5.024 3.098-10.282 3.477-14.983 1.251-.874 5.234-4.22 9.199-9.842 11.391-5.593 2.18-10.527 2.609-14.67 1.345-2.176 1.389-6.411 3.551-11.665 3.551zm1.255-61.565c-12.63 7.036-25.569 19.806-15.676 40.731 4.026 8.517 8.878 12.834 14.421 12.834 1.462 0 2.832-.297 4.016-.7-.268-.35-.542-.725-.82-1.127a26.02 26.02 0 0 1-2.178-3.585c-1.73-3.207-3.301-7.158-4.627-11.661a4 4 0 0 1 7.461-2.824c.608 1.301 1.146 2.827 1.714 4.442.72 2.046 1.536 4.363 2.579 6.409.48.889 1.021 1.78 1.567 2.576 1.86 2.51 3.997 3.63 6.921 3.63 1.941 0 4.229-.508 6.798-1.509 2.079-.811 6.89-2.688 4.184-11.563-4.083-5.624-6.211-12.004-6.303-12.281a4 4 0 0 1 7.005-3.645c.175.234 4.175 5.637 6.477 12.153 2.546 3.202 5.115 4.824 7.64 4.824 1.405 0 2.929-.5 4.529-1.487 7.562-4.662 7.582-8.786 6.575-12.211a28.923 28.923 0 0 0-1.157-2.903c-.965-1.981-2.323-4.028-3.521-5.835-.947-1.428-1.841-2.776-2.513-4.046a3.999 3.999 0 0 1 6.748-4.253c2.795 3.771 5.001 7.404 6.558 10.8a25.662 25.662 0 0 1 1.518 3.842c.149.455.28.89.396 1.307 1.573-1.069 3.211-2.629 4.186-4.826 1.9-4.286.971-10.072-2.761-17.197-5.39-10.284-14.892-16.183-26.068-16.183-5.862 0-11.838 1.676-16.83 4.718a3.776 3.776 0 0 1-.272.151l-18.567 9.419z"></path><path fill="#FFF" d="M83.081 374.11c3.361-.499 1.36-10.41-1.154-19.324 6.923-1.892 13.264-3.387 17.364-3.974 14.271-2.043 19.861-4.099 17.578-10.207-2.959-7.922-19.604.262-37.189 6.78-1.285-3.976-2.305-6.78-2.305-6.78s19.634-5.992 16.666-12.841c-.982-2.266-35.844 10.044-47.26 17.807-10.729 7.763 8.678 4.34 23.631-1.597.479 1.552 1.028 3.73 1.646 6.206-16.388 6.174-30.398 12.88-32.811 14.568-2.739 1.917-.457 6.621 7.077 2.282 4.1-2.36 15.742-6.427 27.506-9.931 2.334 8.658 5.389 17.584 9.251 17.011zm58.913 40.007c-3.103-8.3-21.232 1.086-39.725 7.706S67.03 436.4 64.373 438.261c-2.739 1.917-.457 6.621 7.076 2.284 3.882-2.235 14.526-6 25.632-9.369l1.484 4.453s-17.134 5.256-20.818 7.825c-3.683 2.568.597 4.966 2.31 9.418 1.712 4.45-2.227 10.444-7.363 11.985s9.381 6.164 16.334-2.911c6.953-9.074-2.122-16.952-2.122-16.952l13.128-3.938s2.025 7.363 2.839 10.104c.813 2.738-2.269 4.109-2.954 1.54-.685-2.568-1.712-7.706-4.794-6.335-3.082 1.369-1.541 6.335-.171 9.588 1.369 3.254 5.479 5.993 16.095 1.369 10.616-4.622 15.067-5.307 15.239-7.704.171-2.397-1.713-12.671-4.795-12.671s-5.822.514-3.253 7.877c.856 2.739-3.082 7.191-5.137 3.938-2.055-3.254-4.28-10.959-4.28-10.959l16.438-5.821s3.082 12.842 8.047 18.32c4.966 5.479 9.246-.856 6.336-5.309-2.911-4.45-6.85-12.327-7.363-15.409s-1.369-5.475-8.39-2.993c-7.021 2.48-17.787 5.904-17.787 5.904l-1.165-3.613c7.734-2.166 14.962-3.912 19.477-4.558 14.272-2.042 19.861-4.097 17.578-10.207zm-76.492 9.761c-7.533 5.936 5.771 7.077 12.245-1.599 6.476-8.674 9.235-17.207 11.28-23.1 4.784-5.437 17.796-8.79 19.395-6.886 1.599 1.905 3.594 16.867-15.98 19.485-11.187 1.826-.001 7.305 15.296.456 15.296-6.849 13.965-26.127 3.653-27.624-10.578-1.431-21.424 6.164-21.424 6.164l.733-4.931c7.882-2.218 15.28-4.011 19.871-4.668 14.271-2.043 19.861-4.099 17.578-10.208-3.102-8.3-21.231 1.087-39.724 7.707-18.491 6.62-35.239 14.576-37.897 16.438-2.738 1.917-.457 6.621 7.077 2.283 3.667-2.111 13.368-5.587 23.792-8.806-1.042 6.393-4.972 25.495-15.895 35.289z"></path></svg>